<svg width="1200" height="630" viewBox="0 0 1200 630" fill="none" xmlns="http://www.w3.org/2000/svg" role="img" aria-labelledby="title desc">
  <title id="title">AICodeBackup social preview</title>
  <desc id="desc">AICodeBackup protects AI-generated code with private GitHub backups.</desc>
  <rect width="1200" height="630" fill="#F7FAF8"/>
  <rect x="72" y="72" width="1056" height="486" rx="8" fill="#101413"/>
  <rect x="72" y="72" width="1056" height="72" rx="8" fill="#1B211F"/>
  <circle cx="112" cy="108" r="10" fill="#FF6B6B"/>
  <circle cx="144" cy="108" r="10" fill="#FFD166"/>
  <circle cx="176" cy="108" r="10" fill="#19C37D"/>
  <text x="220" y="116" fill="#DDEBE4" font-family="ui-monospace, SFMono-Regular, Menlo, Consolas, monospace" font-size="24" font-weight="700">aicodebackup setup</text>
  <text x="116" y="222" fill="#8CF4BF" font-family="Inter, Arial, sans-serif" font-size="58" font-weight="900">Never lose your</text>
  <text x="116" y="292" fill="#8CF4BF" font-family="Inter, Arial, sans-serif" font-size="58" font-weight="900">AI-generated code again.</text>
  <text x="120" y="368" fill="#DDEBE4" font-family="Inter, Arial, sans-serif" font-size="28" font-weight="600">Automatic private GitHub backups for AI coding projects.</text>
  <rect x="120" y="430" width="520" height="62" rx="8" fill="#17211D" stroke="#2A3A34"/>
  <text x="150" y="470" fill="#DDEBE4" font-family="ui-monospace, SFMono-Regular, Menlo, Consolas, monospace" font-size="24">npm install -g aicodebackup@alpha</text>
  <path d="M982 252C1024 252 1058 286 1058 328C1058 370 1024 404 982 404C940 404 906 370 906 328C906 286 940 252 982 252Z" fill="#19C37D"/>
  <path d="M952 330L973 351L1015 300" stroke="#101413" stroke-width="18" stroke-linecap="round" stroke-linejoin="round"/>
  <text x="846" y="456" fill="#8EA29A" font-family="Inter, Arial, sans-serif" font-size="24" font-weight="800">Private by default</text>
</svg>
